HIERARCHY
ROOT Hips
{
  OFFSET 5.72205e-005 65.662 3.42586
  CHANNELS 6 Xposition Yposition Zposition Zrotation Xrotation Yrotation
  JOINT Chest
  {
    OFFSET 0 8.7983 -4.7612
    CHANNELS 3 Zrotation Xrotation Yrotation
    JOINT Chest2
    {
      OFFSET 0 8.0291 0.4195
      CHANNELS 3 Zrotation Xrotation Yrotation
      JOINT Chest3
      {
        OFFSET 0 9.9351 -2.2114
        CHANNELS 3 Zrotation Xrotation Yrotation
        JOINT Neck
        {
          OFFSET 0 22.3885 -0.4656
          CHANNELS 3 Zrotation Xrotation Yrotation
          JOINT Head
          {
            OFFSET -0.0001 12.643 3.4389
            CHANNELS 3 Zrotation Xrotation Yrotation
            End Site
            {
              OFFSET 0.0001 17.6655 0.5274
            }
          }
        }
        JOINT LeftCollar
        {
          OFFSET 2.2603 21.606 7.4023
          CHANNELS 3 Zrotation Xrotation Yrotation
          JOINT LeftShoulder
          {
            OFFSET 13.5163 -1.1332 -5.0146
            CHANNELS 3 Zrotation Xrotation Yrotation
            JOINT LeftElbow
            {
              OFFSET -0.0995 -28.05 -0.2431
              CHANNELS 3 Zrotation Xrotation Yrotation
              JOINT LeftWrist
              {
                OFFSET 0.0679 -23.3996 -0.1402
                CHANNELS 3 Zrotation Xrotation Yrotation
                JOINT LeftFinger1
                {
                  OFFSET 0.7932 -9.069 2.5189
                  CHANNELS 3 Zrotation Xrotation Yrotation
                  JOINT LeftFinger11
                  {
                    OFFSET -0.8272 -3.3923 0.5977
                    CHANNELS 3 Zrotation Xrotation Yrotation
                    JOINT LeftFinger12
                    {
                      OFFSET -0.5649 -2.3158 0.4082
                      CHANNELS 3 Zrotation Xrotation Yrotation
                      End Site
                      {
                        OFFSET -0.4919 -1.6479 0.2673
                      }
                    }
                  }
                }
                JOINT LeftFinger2
                {
                  OFFSET 0.9159 -9.2044 0.2193
                  CHANNELS 3 Zrotation Xrotation Yrotation
                  JOINT LeftFinger21
                  {
                    OFFSET 0.0117 -4.1944 -0.0248
                    CHANNELS 3 Zrotation Xrotation Yrotation
                    JOINT LeftFinger22
                    {
                      OFFSET 0.0071 -2.3249 -0.0142
                      CHANNELS 3 Zrotation Xrotation Yrotation
                      End Site
                      {
                        OFFSET -0.1475 -2.0882 0.0028
                      }
                    }
                  }
                }
                JOINT LeftFinger3
                {
                  OFFSET 0.6113 -8.7231 -2.0637
                  CHANNELS 3 Zrotation Xrotation Yrotation
                  JOINT LeftFinger31
                  {
                    OFFSET -0.1927 -3.8059 -0.2383
                    CHANNELS 3 Zrotation Xrotation Yrotation
                    JOINT LeftFinger32
                    {
                      OFFSET -0.1091 -2.1688 -0.1362
                      CHANNELS 3 Zrotation Xrotation Yrotation
                      End Site
                      {
                        OFFSET -0.2358 -1.9176 -0.0906
                      }
                    }
                  }
                }
                JOINT LeftFinger4
                {
                  OFFSET -0.6151 -8.0947 -3.5641
                  CHANNELS 3 Zrotation Xrotation Yrotation
                  JOINT LeftFinger41
                  {
                    OFFSET -0.4882 -2.341 -0.6462
                    CHANNELS 3 Zrotation Xrotation Yrotation
                    JOINT LeftFinger42
                    {
                      OFFSET -0.3575 -1.7167 -0.4742
                      CHANNELS 3 Zrotation Xrotation Yrotation
                      End Site
                      {
                        OFFSET -0.4187 -1.5237 -0.3496
                      }
                    }
                  }
                }
                JOINT LeftFinger0
                {
                  OFFSET -1.42 -1.8761 1.4223
                  CHANNELS 3 Zrotation Xrotation Yrotation
                  JOINT LeftFinger01
                  {
                    OFFSET -1.1471 -3.4929 2.6334
                    CHANNELS 3 Zrotation Xrotation Yrotation
                    JOINT LeftFinger02
                    {
                      OFFSET -0.823 -2.3 1.6571
                      CHANNELS 3 Zrotation Xrotation Yrotation
                      End Site
                      {
                        OFFSET -0.5822 -1.6914 1.1582
                      }
                    }
                  }
                }
              }
            }
          }
        }
        JOINT RightCollar
        {
          OFFSET -2.2603 21.606 7.4023
          CHANNELS 3 Zrotation Xrotation Yrotation
          JOINT RightShoulder
          {
            OFFSET -13.5187 -1.1334 -5.0155
            CHANNELS 3 Zrotation Xrotation Yrotation
            JOINT RightElbow
            {
              OFFSET 0.0994 -28.0499 -0.2431
              CHANNELS 3 Zrotation Xrotation Yrotation
              JOINT RightWrist
              {
                OFFSET -0.0679 -23.3996 -0.1402
                CHANNELS 3 Zrotation Xrotation Yrotation
                JOINT RightFinger1
                {
                  OFFSET -0.7932 -9.0691 2.5189
                  CHANNELS 3 Zrotation Xrotation Yrotation
                  JOINT RightFinger11
                  {
                    OFFSET 0.8272 -3.3923 0.5977
                    CHANNELS 3 Zrotation Xrotation Yrotation
                    JOINT RightFinger12
                    {
                      OFFSET 0.565 -2.3158 0.4082
                      CHANNELS 3 Zrotation Xrotation Yrotation
                      End Site
                      {
                        OFFSET 0.4919 -1.6479 0.2673
                      }
                    }
                  }
                }
                JOINT RightFinger2
                {
                  OFFSET -0.916 -9.2044 0.2193
                  CHANNELS 3 Zrotation Xrotation Yrotation
                  JOINT RightFinger21
                  {
                    OFFSET -0.0117 -4.1944 -0.0248
                    CHANNELS 3 Zrotation Xrotation Yrotation
                    JOINT RightFinger22
                    {
                      OFFSET -0.0071 -2.3249 -0.0142
                      CHANNELS 3 Zrotation Xrotation Yrotation
                      End Site
                      {
                        OFFSET 0.1475 -2.0882 0.0028
                      }
                    }
                  }
                }
                JOINT RightFinger3
                {
                  OFFSET -0.6113 -8.7231 -2.0637
                  CHANNELS 3 Zrotation Xrotation Yrotation
                  JOINT RightFinger31
                  {
                    OFFSET 0.1927 -3.8059 -0.2383
                    CHANNELS 3 Zrotation Xrotation Yrotation
                    JOINT RightFinger32
                    {
                      OFFSET 0.1091 -2.1688 -0.1362
                      CHANNELS 3 Zrotation Xrotation Yrotation
                      End Site
                      {
                        OFFSET 0.2358 -1.9176 -0.0906
                      }
                    }
                  }
                }
                JOINT RightFinger4
                {
                  OFFSET 0.6151 -8.0947 -3.564
                  CHANNELS 3 Zrotation Xrotation Yrotation
                  JOINT RightFinger41
                  {
                    OFFSET 0.4882 -2.341 -0.6462
                    CHANNELS 3 Zrotation Xrotation Yrotation
                    JOINT RightFinger42
                    {
                      OFFSET 0.3574 -1.7166 -0.4742
                      CHANNELS 3 Zrotation Xrotation Yrotation
                      End Site
                      {
                        OFFSET 0.4187 -1.5237 -0.3496
                      }
                    }
                  }
                }
                JOINT RightFinger0
                {
                  OFFSET 1.4199 -1.8761 1.4221
                  CHANNELS 3 Zrotation Xrotation Yrotation
                  JOINT RightFinger01
                  {
                    OFFSET 1.1472 -3.4929 2.6336
                    CHANNELS 3 Zrotation Xrotation Yrotation
                    JOINT RightFinger02
                    {
                      OFFSET 0.8229 -2.3 1.6571
                      CHANNELS 3 Zrotation Xrotation Yrotation
                      End Site
                      {
                        OFFSET 0.5822 -1.6914 1.1582
                      }
                    }
                  }
                }
              }
            }
          }
        }
      }
    }
  }
  JOINT RightHip
  {
    OFFSET -9.412 3.9771 -0.7758
    CHANNELS 3 Zrotation Xrotation Yrotation
    JOINT RightKnee
    {
      OFFSET -0.7531 -40.938 0
      CHANNELS 3 Zrotation Xrotation Yrotation
      JOINT RightAnkle
      {
        OFFSET 0 -40.1986 0
        CHANNELS 3 Zrotation Xrotation Yrotation
        JOINT RightToe
        {
          OFFSET 0 -4.4182 9.239
          CHANNELS 3 Zrotation Xrotation Yrotation
          End Site
          {
            OFFSET 0 0 6.1981
          }
        }
      }
    }
  }
  JOINT LeftHip
  {
    OFFSET 9.4119 3.9773 -0.7758
    CHANNELS 3 Zrotation Xrotation Yrotation
    JOINT LeftKnee
    {
      OFFSET 0.7532 -40.9383 0
      CHANNELS 3 Zrotation Xrotation Yrotation
      JOINT LeftAnkle
      {
        OFFSET 0 -40.1986 0
        CHANNELS 3 Zrotation Xrotation Yrotation
        JOINT LeftToe
        {
          OFFSET 0 -4.4182 9.239
          CHANNELS 3 Zrotation Xrotation Yrotation
          End Site
          {
            OFFSET 0 0 6.1981
          }
        }
      }
    }
  }
}
MOTION
Frames:	5
Frame Time:	0.0333333
39.488 2.13834 9.73089 179.999 -89.9981 179.999 -0.0237918 10.2862 -0.157283 -0.0187973 20.5725 -0.318043 -0.0187972 20.5725 -0.318043 -1.47685e-006 30.9989 4.49364e-006 -1.47152e-007 13.997 3.23956e-007 -7.73476 -0.188751 -3.51607 11.0414 33.848 21.9383 -21.1905 -71.1946 -48.5299 -1.50542 -6.58517 -21.817 -2.99851e-006 -6.41631e-007 -2.80307e-006 -9.692e-006 6.07892e-006 -4.14768e-006 5.83964e-006 -5.26504e-006 -2.02631e-006 -2.99851e-006 -6.41631e-007 -2.80307e-006 -0.0127754 0.00232523 7.8573e-005 -1.67337e-006 -2.3572e-006 -3.3622e-007 -2.99851e-006 -6.41631e-007 -2.80307e-006 -0.0160532 0.00300658 0.000859207 -1.59028e-015 4.77083e-015 3.42904e-015 -2.99851e-006 -6.41631e-007 -2.80307e-006 -0.0126761 0.00312918 0.00283685 -1.67336e-006 -2.0511e-006 -3.36241e-007 -2.99851e-006 -6.41631e-007 -2.80307e-006 -9.692e-006 6.07892e-006 -4.14768e-006 5.83964e-006 -5.26504e-006 -2.02631e-006 -0.642406 -8.07744 12.115 -21.6319 -14.5755 15.2726 66.1712 -56.7895 18.8871 -31.9734 3.63872 0.330705 3.18055e-015 1.59028e-015 1.59028e-015 9.54166e-015 0 7.95139e-016 -0 -1.59028e-015 -0 3.18055e-015 1.59028e-015 1.59028e-015 0.0129947 0.00231697 -8.72811e-005 3.18055e-015 3.18055e-015 -0 3.18055e-015 1.59028e-015 1.59028e-015 0.0163265 0.00302667 -0.000876295 3.18055e-015 3.18055e-015 7.95139e-016 3.18055e-015 1.59028e-015 1.59028e-015 0.0145509 0.00365131 -0.00325853 3.18055e-015 1.59028e-015 -0 3.18055e-015 1.59028e-015 1.59028e-015 9.54166e-015 0 7.95139e-016 -0 -1.59028e-015 -0 -43.7775 -40.9369 -6.67261 175.732 69.3474 -178.333 -27.7731 29.3591 50.9465 4.12792e-007 -3.2204e-006 3.54685e-007 9.06925 4.18798 -25.5161 -5.63541 4.31238 0.147551 13.4595 -6.03554 4.73081 -1.59862e-006 9.68223e-006 3.02045e-006 
39.4885 2.13843 9.73093 180 -89.9981 180 -0.0278186 10.103 -0.156029 -0.0278363 20.2062 -0.314514 -0.0278363 20.2062 -0.314514 -1.29657e-006 30.1429 4.25689e-006 1.14635e-007 13.426 -2.84675e-007 -7.23895 0.057498 -3.27762 10.5558 33.846 22.1472 -21.8893 -71.2305 -49.1998 -1.964 -6.01164 -22.1849 7.95139e-016 0 -3.8266e-015 1.67329e-006 1.37276e-007 3.36597e-007 2.5842e-015 -4.77083e-015 -2.03754e-015 7.95139e-016 0 -3.8266e-015 -0.0127927 0.00231999 8.3874e-005 -2.13799e-031 1.59028e-015 7.70291e-015 7.95139e-016 0 -3.8266e-015 -0.0160124 0.00299311 0.000852113 1.39149e-015 -1.59028e-015 9.44227e-016 7.95139e-016 0 -3.8266e-015 -0.0126267 0.00313249 0.00283611 -2.75869e-033 -3.18055e-015 -4.96962e-017 7.95139e-016 0 -3.8266e-015 1.67329e-006 1.37276e-007 3.36597e-007 2.5842e-015 -4.77083e-015 -2.03754e-015 -0.213479 -7.53921 12.3813 -21.8784 -14.681 15.1617 64.8222 -56.1068 17.4128 -31.5897 3.96903 0.126274 3.18055e-015 0 1.59028e-015 6.36111e-015 3.18055e-015 -0 3.18055e-015 0 7.95139e-016 3.18055e-015 0 1.59028e-015 0.0129436 0.00230964 -9.15213e-005 8.82781e-032 3.18055e-015 -1.59028e-015 3.18055e-015 0 1.59028e-015 0.0163057 0.00303848 -0.000871559 3.18055e-015 0 7.95139e-016 3.18055e-015 0 1.59028e-015 0.014564 0.00367886 -0.00325972 4.41391e-032 3.18055e-015 -7.95139e-016 3.18055e-015 0 1.59028e-015 6.36111e-015 3.18055e-015 -0 3.18055e-015 0 7.95139e-016 -42.6459 -41.0327 -5.3577 175.733 69.3463 -178.33 -26.5995 29.658 50.3458 -7.14657e-008 0 2.01121e-007 9.06896 4.1879 -25.5161 -5.63547 4.31237 0.147557 13.4597 -6.03534 4.7308 1.59862e-006 5.1983e-007 -3.02045e-006 
39.4889 2.1385 9.73095 -180 -89.9981 -180 -0.0318318 9.91985 -0.154809 -0.0368143 19.8398 -0.311098 -0.0368142 19.8398 -0.311098 -9.43923e-007 29.2863 3.74869e-006 7.84426e-008 12.8549 -1.97767e-007 -6.744 0.305886 -3.04122 10.0703 33.8425 22.3562 -22.5907 -71.2636 -49.8722 -2.41866 -5.43483 -22.5481 -7.95139e-016 -1.59028e-015 -3.37934e-015 -1.98785e-016 -1.59028e-015 -1.98785e-016 -7.95139e-016 0 -3.47873e-016 -7.95139e-016 -1.59028e-015 -3.37934e-015 -0.0127848 0.00233247 8.35787e-005 -2.17818e-006 1.78174e-006 -5.84267e-006 -7.95139e-016 -1.59028e-015 -3.37934e-015 -0.0159936 0.00299336 0.000856035 -9.2221e-006 6.43725e-006 -5.06255e-006 -7.95139e-016 -1.59028e-015 -3.37934e-015 -0.0125657 0.00311833 0.00281948 -7.95139e-016 1.59028e-015 1.28216e-014 -7.95139e-016 -1.59028e-015 -3.37934e-015 -1.98785e-016 -1.59028e-015 -1.98785e-016 -7.95139e-016 0 -3.47873e-016 0.212612 -6.99882 12.6434 -22.1254 -14.786 15.0502 63.5271 -55.4048 15.9917 -31.2046 4.29811 -0.0805304 -3.18055e-015 4.77083e-015 1.59028e-015 -6.36111e-015 1.59028e-015 -0 0 3.18055e-015 -0 -3.18055e-015 4.77083e-015 1.59028e-015 0.0129766 0.00231705 -8.46763e-005 -3.18055e-015 -1.59028e-015 -1.59028e-015 -3.18055e-015 4.77083e-015 1.59028e-015 0.0163718 0.00303931 -0.000875838 4.41391e-032 -3.18055e-015 7.95139e-016 -3.18055e-015 4.77083e-015 1.59028e-015 0.0145415 0.00366445 -0.00325099 -3.18055e-015 1.59028e-015 -1.59028e-015 -3.18055e-015 4.77083e-015 1.59028e-015 -6.36111e-015 1.59028e-015 -0 0 3.18055e-015 -0 -41.5083 -41.1096 -4.0369 175.733 69.3446 -178.326 -25.4175 29.9464 49.7355 -4.3608e-007 -1.64711e-006 -4.13168e-008 9.06856 4.18778 -25.516 -5.63545 4.31284 0.147597 13.4601 -6.03557 4.73084 -2.39792e-006 1.00491e-005 4.53068e-006 
39.4893 2.13856 9.73098 -179.999 -89.9981 -179.999 -0.0358318 9.73662 -0.153623 -0.0457329 19.4733 -0.307793 -0.045733 19.4734 -0.307794 -9.04575e-007 28.4293 3.80709e-006 3.08353e-007 12.2837 -8.79821e-008 -6.24993 0.556377 -2.8069 9.58456 33.8376 22.5652 -23.2945 -71.2943 -50.5472 -2.86949 -4.85491 -22.9065 -3.97569e-016 -1.59028e-015 1.41137e-014 3.14491e-031 -1.59028e-015 1.13307e-014 7.95139e-016 0 8.39865e-015 -3.97569e-016 -1.59028e-015 1.41137e-014 -0.0128197 0.00230372 7.6432e-005 5.96354e-016 -1.59028e-015 -1.68967e-015 -3.97569e-016 -1.59028e-015 1.41137e-014 -0.0160555 0.00299183 0.00085096 -2.18663e-015 6.36111e-015 -5.2181e-015 -3.97569e-016 -1.59028e-015 1.41137e-014 -0.0125917 0.00312088 0.00282341 1.02072e-031 3.18055e-015 -1.83876e-015 -3.97569e-016 -1.59028e-015 1.41137e-014 3.14491e-031 -1.59028e-015 1.13307e-014 7.95139e-016 0 8.39865e-015 0.635898 -6.45627 12.9012 -22.3726 -14.8905 14.9382 62.284 -54.6846 14.6222 -30.818 4.62583 -0.289665 -3.18055e-015 0 -3.97569e-016 -6.36111e-015 -3.18055e-015 7.95139e-016 -3.18055e-015 0 -7.95139e-016 -3.18055e-015 0 -3.97569e-016 0.0129849 0.0023164 -9.21783e-005 -1.10348e-032 -1.59028e-015 -3.97569e-016 -3.18055e-015 0 -3.97569e-016 0.0163329 0.00302603 -0.0008706 -6.36111e-015 -6.36111e-015 1.59028e-015 -3.18055e-015 0 -3.97569e-016 0.0145777 0.00368401 -0.00326376 -0 -1.59028e-015 -0 -3.18055e-015 0 -3.97569e-016 -6.36111e-015 -3.18055e-015 7.95139e-016 -3.18055e-015 0 -7.95139e-016 -40.3669 -41.1662 -2.71207 175.733 69.3433 -178.322 -24.2274 30.2241 49.1159 -7.13066e-008 -1.61085e-006 2.01178e-007 9.06813 4.1877 -25.516 -5.63534 4.3133 0.147626 13.4603 -6.03572 4.73086 -2.49921e-006 1.00221e-005 4.2637e-006 
39.4897 2.13861 9.73101 -179.999 -89.9981 -179.999 -0.0398185 9.55332 -0.152471 -0.0545935 19.1068 -0.3046 -0.0545935 19.1069 -0.304601 -2.68805e-007 27.5718 3.02117e-006 -2.67321e-007 11.7123 -2.31137e-007 -5.75676 0.808911 -2.57468 9.09901 33.8311 22.774 -24.0003 -71.322 -51.224 -3.31642 -4.27201 -23.2601 -3.97569e-016 -1.59028e-015 1.04362e-015 5.01934e-006 2.99423e-006 1.01286e-006 1.39149e-015 0 -2.03754e-015 -3.97569e-016 -1.59028e-015 1.04362e-015 -0.0128119 0.00231589 8.50309e-005 1.59028e-015 1.59028e-015 4.27387e-015 -3.97569e-016 -1.59028e-015 1.04362e-015 -0.0160693 0.00301458 0.000863488 -1.94456e-006 -1.47007e-005 -6.30441e-006 -3.97569e-016 -1.59028e-015 1.04362e-015 -0.0125136 0.00310221 0.00281218 1.98785e-016 -1.59028e-015 -6.4605e-015 -3.97569e-016 -1.59028e-015 1.04362e-015 5.01934e-006 2.99423e-006 1.01286e-006 1.39149e-015 0 -2.03754e-015 1.05642 -5.9117 13.1548 -22.6202 -14.9946 14.8257 61.0916 -53.9474 13.3028 -30.43 4.95222 -0.50118 -4.04502e-006 -1.09513e-007 5.16323e-006 6.36111e-015 7.95139e-015 1.98785e-015 -6.62086e-032 9.54166e-015 3.97569e-016 -4.04502e-006 -1.09513e-007 5.16323e-006 0.0129594 0.00231676 -8.96039e-005 -3.18055e-015 1.11319e-014 1.59028e-015 -4.04502e-006 -1.09513e-007 5.16323e-006 0.0163457 0.00303448 -0.000873461 9.54166e-015 3.18055e-015 -7.95139e-016 -4.04502e-006 -1.09513e-007 5.16323e-006 0.0145404 0.0036682 -0.00325644 -0 0 1.98785e-015 -4.04502e-006 -1.09513e-007 5.16323e-006 6.36111e-015 7.95139e-015 1.98785e-015 -6.62086e-032 9.54166e-015 3.97569e-016 -39.222 -41.2033 -1.38391 175.733 69.3418 -178.318 -23.0294 30.4907 48.4874 -1.30843e-006 3.20494e-006 -1.23047e-007 9.06794 4.18789 -25.5159 -5.63542 4.31299 0.147594 13.4606 -6.03552 4.73085 -1.03068e-006 1.14889e-005 5.46009e-006 
